<?xml version="1.0" encoding="UTF-8"?>
<svg id="Layer_1" data-name="Layer 1" xmlns="http://www.w3.org/2000/svg" viewBox="0 0 2434.15 2552.07">
  <defs>
    <style>
      .cls-1 {
        fill: #7211f3;
      }
    </style>
  </defs>
  <path class="cls-1" d="M1193.59.85c44.78-3.28,90.23,2.91,132.45,18.21,63.22,22.68,118.6,66.14,156.17,121.75,35.31,51.89,54.52,114.43,54.8,177.17.03,68.68.02,137.37.01,206.05-.05,8.23-4.6,15.93-11.06,20.83-9.08,7.01-22.85,7.13-32.06.32-6.25-4.48-10.41-11.59-11.87-19.05v-171.13c-.14-24.41.8-48.93-2.32-73.21-1.44-10.3-2.51-20.77-5.79-30.69-6.08-20.29-14.32-39.93-24.38-58.56-7.37-13.3-15.15-26.5-25.17-38-12.19-14.69-25.64-28.34-40.32-40.55-15.52-13.62-33.7-23.77-52.1-32.92-17.02-8.24-34.77-14.99-53-19.99-36.81-7.32-74.92-7.97-111.99-2.13-16.5,2.18-32.13,8.31-47.53,14.35-19.87,8.14-38.87,18.42-56.64,30.48-23.23,17.48-43.99,38.24-61.57,61.4-16.84,24.56-30.02,51.59-39.26,79.9-2.01,6.6-4.29,13.16-5.19,20.04-4.15,23.04-5.09,46.5-4.74,69.86v178.04c-.21,6.24.73,12.7-1.36,18.73-3.18,8.92-11.13,16.08-20.44,18.01-5.16.36-10.66.85-15.49-1.37-8.47-3.4-15.16-11.16-16.92-20.16-.88-3.67-.7-7.47-.79-11.2v-168.04c.12-20.59-.63-41.26,1.66-61.77,4.28-42.03,16.97-83.19,37.21-120.27,32.32-59.45,83.99-108.16,145.31-136.81,35.25-16.52,73.55-26.47,112.38-29.29Z"/>
  <path class="cls-1" d="M1194.62,476.9c42.18-3.38,85.12,2.88,124.54,18.27,32.59,12.65,62.71,31.56,88.38,55.3,10.49,9.85,20.46,20.26,30.7,30.37,142.31,142.32,284.64,284.61,426.93,426.94,38.65,38.64,65.58,88.81,76.26,142.43,9.36,46.24,6.87,94.82-7.25,139.84-10.46,33.59-27.38,65.13-49.52,92.46-9.42,11.85-20.21,22.5-30.93,33.15-144.34,144.34-288.68,288.68-433.01,433.02-20.88,21.62-44.93,40.25-71.5,54.34-39.88,21.27-84.95,32.69-130.15,32.95-52.65.47-105.35-14.21-150.06-42.06-15.57-9.65-30.15-20.86-43.55-33.33-6.19-5.82-12.12-11.9-18.14-17.88-136.49-136.5-272.99-273-409.48-409.49-10.66-10.7-21.41-21.31-31.99-32.07-23.71-24.51-42.94-53.36-56.3-84.74-16.32-38.15-23.95-79.97-22.31-121.42,1.61-42.11,12.82-83.83,32.66-121.01,13.46-25.37,30.97-48.53,51.42-68.67,147.34-147.33,294.67-294.67,442-442,20.4-21.13,43.82-39.39,69.68-53.35,34.34-18.69,72.65-29.97,111.62-33.05ZM1200.52,822.82c-34.39,3.24-67.75,17.14-94.08,39.53-26.73,22.36-46.47,53.03-55.4,86.75-10.31,37.58-7.21,78.64,8.51,114.3,12.48,28.58,33.02,53.49,58.46,71.5,5.84,5.73,10.66,12.59,14.39,19.88,2.54,5.35,4.16,11.32,3.44,17.3-1.68,11.6-3.48,23.18-4.93,34.82-14.31,97.66-28.61,195.33-42.92,293-.86,6.02-2,12.04-2.03,18.15-.47,19.46,7.61,38.85,21.54,52.41,13.04,12.92,31.21,20.46,49.57,20.54,39.97.01,79.94.03,119.91-.01,23.86-.08,47.03-13.19,59.64-33.4,9.16-14.27,12.87-31.85,10.43-48.61-10.03-68.58-20.08-137.17-30.13-205.75-6.07-42.09-12.54-84.13-18.28-126.26-2.69-10.11.97-20.47,6.63-28.83,3.43-5.05,6.6-10.6,11.82-14.03,31.8-22.63,55.48-56.41,65.74-94.08,10.68-38.41,7.46-80.47-9.01-116.78-14.25-31.72-38.46-58.8-68.24-76.72-31.27-18.91-68.7-27.28-105.06-23.71ZM759.36,980.47c-20.57.71-41.21,3.45-60.72,10.22-21.56,7.54-42.33,17.67-60.92,31.01-27.69,20.14-51.43,46.03-67.91,76.13-11.71,21.9-21.08,45.37-24.7,70.06-3.28,22.54-3.52,45.49-.95,68.11,2.46,22.95,9.84,45.12,19.88,65.82,15.28,32.58,39.13,60.73,67.4,82.81,16.87,13.12,35.82,23.38,55.61,31.35,16.96,6.97,34.94,11.46,53.2,13.24,21.78,2.17,43.84,1.84,65.49-1.4,20.75-3.11,40.67-10.3,59.45-19.49,35.01-16.79,64.98-43.31,87.42-74.86,12.88-18.39,22.75-38.81,30.04-60.02,7.49-21.99,9.88-45.33,10.04-68.44-.26-21.21-2.26-42.58-8.59-62.91-11.28-35.78-30.68-69.25-57.65-95.47-26.04-26.8-59.22-46.13-94.71-57.45-23.35-7.31-48.04-9.24-72.38-8.71ZM1658.32,980.47c-6.83.56-13.7.53-20.49,1.46-31.46,3.11-61.43,15.2-88.39,31.33-16.04,9.82-30.71,21.81-43.78,35.32-25.8,25.7-44.39,58.12-55.45,92.7-6.71,21.24-8.74,43.62-8.84,65.79.35,16.44,1.47,32.96,5.2,49.03,4.17,18.55,11.49,36.25,20.16,53.12,14.78,28.66,36.37,53.51,61.46,73.64,19.9,15.92,42.79,27.8,66.69,36.49,16.75,5.97,34.37,9.42,52.11,10.53,30.64,2.07,62.09-.08,91.19-10.53,22.57-8.22,44.26-19.25,63.35-33.91,30.79-23.67,56.27-54.69,71.62-90.5.44-8.11-2.86-16.57-8.93-22.07-6.78-7.25-17.98-10.86-27.45-7.15-9.17,2.99-15.32,11.13-19.67,19.33-15.1,27.05-37.04,50.35-63.51,66.52-22.8,13.79-48.85,22.79-75.61,23.59-18.01,1.07-36.3-.12-53.78-4.73-38.4-10.28-72.34-34.85-95.53-66.96-16.05-22.51-27.11-48.88-30.13-76.46-1.82-19.97-1.5-40.33,3.09-59.92,10.44-43.52,39.29-81.74,76.99-105.51,14.95-8.81,30.87-16.22,47.78-20.37,18.84-4.81,38.46-5.1,57.77-3.91,30.26,2.57,59.3,14.76,83.49,32.94,20.75,15.71,37.93,35.97,50.42,58.79,4.36,8.97,12.17,16.72,22.15,18.92,5.68,1.78,11.67-.26,16.78-2.82,10.73-5.49,17.87-17.9,15.73-29.99-10.9-24.94-26.54-47.81-45.81-67.04-17.39-17.91-37.68-33.08-60.1-44.12-19.11-9.6-39.42-17.21-60.61-20.56-15.82-2.52-31.9-3.36-47.9-2.95Z"/>
  <path class="cls-1" d="M744.56,1037.72c23.48-2.4,47.65-1.65,70.35,5.32,54.01,16.43,98.53,60.9,115.02,114.9,6.92,22.28,7.68,46,5.58,69.08-4.32,38.42-23.71,74.41-51.5,100.99-28.61,27.63-67.07,46.01-107.12,47.24-22.3,1.18-45.05-1.15-66.06-9.05-53.19-19.33-95.84-66.02-109.17-121.15-3.75-16-4.72-32.59-3.87-48.97.6-19.35,5.15-38.53,13.06-56.18,13.87-31.96,37.88-59.23,67.18-77.94,20.13-12.61,42.84-21.5,66.53-24.24Z"/>
  <path class="cls-1" d="M151.79,2112.68c32.03-11.46,66.79-13.11,100.38-9.75,31.28,3.07,61.07,15.05,87.91,31,21.11,12.82,39.75,29.45,55.81,48.15,16.11,18.69,28.59,40.33,37.8,63.18,5.55,13.37,9.63,27.37,11.94,41.68,2.29,13.31,2.7,26.84,3.16,40.32l1.15-14.97c-.45,9.83.18,19.65-.17,29.49-.23-4.21-.7-12.61-.94-16.82-.39,22.93-2.38,46.12-9.7,68-7.3,21.77-17.37,42.72-30.56,61.56-22.41,31.48-52.31,57.96-87.24,74.74-18.81,9.21-38.76,16.42-59.53,19.55-21.89,3.28-44.2,3.6-66.21,1.33-19.1-1.88-37.84-6.86-55.48-14.37-18.07-7.52-35.39-16.97-50.98-28.85-16.17-12.33-30.75-26.73-43.4-42.63-13.58-17.1-24.21-36.4-32.38-56.6-5.94-14.29-10.13-29.29-12.4-44.59-1.39-7.3-.8-14.74-.92-22.1.05-14.69-.1-29.37.07-44.04,2.72-28.04,13.03-54.79,26.41-79.38,12.7-22.97,29.79-43.37,49.47-60.67,21.9-19.76,48.17-34.22,75.81-44.23ZM200.57,2158.71c-48.42,5.89-92.27,35.52-119.24,75.67-15.25,23.06-25.59,49.82-27.24,77.57-1.79,24,.22,48.65,8.77,71.31,19.23,52.9,65.54,95.34,120.28,108.92,22.46,5.28,45.98,5.5,68.76,2.23,56.14-9.53,105.2-50,127.63-102.01,8.19-18.37,12.43-38.36,12.91-58.43.44-15.7-.5-31.54-4.25-46.83-15.69-63.46-70.43-115.76-134.95-127.3-17.39-2.87-35.17-2.98-52.67-1.13Z"/>
  <path class="cls-1" d="M1489.36,2101.47c24.35-.53,49.03,1.4,72.38,8.71,35.02,11.19,67.82,30.14,93.68,56.42,20.4,19.8,37,43.55,48.35,69.62,2.98,16.82-12.02,33.21-28.7,33.41-10.68-1-20.05-8.26-24.87-17.65-8.55-15.52-18.74-30.22-31.28-42.79-26.84-27.74-63.21-46.84-101.82-50.7-24.49-1.97-49.67-.71-72.97,7.68-18.26,6.65-35.79,15.75-50.88,28.07-29.31,23.48-51.36,56.3-60.39,92.89-3.92,16.28-4.94,33.18-4.06,49.88.6,19.59,5.28,39,13.37,56.85,14.01,31.86,38.11,59,67.45,77.58,20.17,12.53,42.9,21.3,66.58,23.95,23.33,2.27,47.33,1.5,69.87-5.45,43.53-13.21,80.49-44.77,102.35-84.43,4.82-9.45,12.83-18.27,23.8-19.98,16.9-2.55,33.18,13.67,31.9,30.43-15.24,35.62-40.55,66.48-71.1,90.1-16.86,13.04-35.79,23.22-55.54,31.13-17.05,6.97-35.13,11.38-53.46,13.12-24.17,2.25-48.73,1.71-72.6-2.89-21.4-4.24-41.73-12.7-60.94-22.87-33.28-18.16-61.63-45.01-82.46-76.6-17.75-28.26-30.91-60.08-34.13-93.51-1.47-11.44-.65-22.99-.86-34.46-.55-22.71,3.51-45.46,11.25-66.79,7.19-19.26,16.34-37.9,28.21-54.73,20.4-28.66,46.99-53.15,77.96-70,20.28-10.74,41.83-19.57,64.52-23.56,11.34-2.18,22.88-2.81,34.39-3.43Z"/>
  <path class="cls-1" d="M1722.45,2101.65c2.72-1.04,5.71-.57,8.58-.65,127.71.02,255.42-.01,383.13.02,8.07.97,15.03,6.95,18.8,13.98,4.56,8.52,3.98,19.47-1.46,27.47-5.04,7.75-14.17,12.63-23.42,12.51-43.01.05-86.02.02-129.03.02-5.29-.16-10.74.07-15.6,2.36-9.97,4.24-16.72,14.82-16.42,25.65v332.06c-.06,4,.14,8.03-.18,12.05-.98,10.19-8.06,19.53-17.67,23.11-9.41,3.74-20.69,1.45-28.07-5.4-4.47-4.43-8.55-10.32-8.1-16.88.04-112.64.01-225.27.02-337.91-.1-5.76.48-11.74-1.77-17.18-3.74-10.35-14.2-17.8-25.21-17.82-42.35-.07-84.69,0-127.04-.03-5.29-.06-10.74.39-15.81-1.4-9.58-3.03-17.17-11.59-18.79-21.53-2.47-12.82,5.79-26.28,18.04-30.43Z"/>
  <path class="cls-1" d="M2191.02,2127.04c-1.41-14.13,12.38-26.39,26-26.04,65.41.08,130.82-.1,196.23.08,8.59,1.87,15.87,8.59,18.98,16.77,3.24,8.18,2.03,17.93-3.06,25.11-5.09,7.48-14.05,12.14-23.1,12.02-42.36.06-84.72.02-127.07.03-5.43-.05-11.03-.31-16.14,1.78-10.35,3.73-17.76,14.2-17.81,25.2-.06,25.68,0,51.35-.03,77.03,0,3.15-.56,8.74,2.39,14.64,5.18,10.35,17.1,14.53,24.55,16.33,44.36.01,88.71.02,133.07.03,15.64,0,23.66,8.88,27.2,16.86,5.58,12.57-2.69,24.57-3.06,25.11-8.07,11.8-21.93,12.03-23.14,12.03-44.71-.11-89.43-.22-134.14-.33-9.89,3.2-21.34,8.92-25.6,19.65-2.53,6.38-1.25,12.21-1.25,14.63-.03,48.69.01,97.38-.02,146.07.09,9.26-4.77,18.43-12.55,23.47-8.4,5.7-20.04,5.99-28.71.74-6.42-3.91-11.85-10.53-12.72-18.13-.03-134.36.01-268.72-.02-403.08Z"/>
  <path class="cls-1" d="M550.63,2158.53c18.57-9.29,40.73-11.05,60.56-4.88,11.42,3.47,21.95,9.58,30.84,17.52,12.67-11.42,28.91-18.84,45.89-20.64,18.2-2.08,37.04,2.17,52.54,11.93,22.17,13.69,37.02,38.44,38.4,64.49.35,9.67.08,19.36.17,29.05-.01,89.33.02,178.67-.01,268,.1,9.26-4.74,18.43-12.51,23.48-7.35,4.98-17.22,5.94-25.38,2.45-7.91-3.24-14.01-10.38-16.16-18.62-1.31-4.66-.88-9.53-.94-14.27-.02-94.67.03-189.33-.03-284,.52-12.69-9.01-24.8-21.43-27.37-9.51-2.21-20.01,1.1-26.48,8.42-4.63,5.11-7.24,11.99-7.05,18.9-.02,94.66-.01,189.32-.01,283.98-.05,5.29.4,10.76-1.39,15.86-3.03,9.58-11.6,17.17-21.55,18.81-10.53,1.92-21.81-3.15-27.48-12.19-3.02-4.53-4.58-9.97-4.58-15.38-.01-95.35.01-190.71,0-286.06-.08-4.13.24-8.32-.86-12.32-1.97-7.8-7.54-14.61-14.83-18.02-8.26-4.01-18.55-3.46-26.31,1.46-8.14,4.96-13.32,14.39-12.99,23.94-.02,94.65-.01,189.3-.01,283.95-.05,5.26.39,10.71-1.39,15.79-3.11,9.91-12.18,17.7-22.54,18.97-13.31,2.07-27.26-7.47-30.01-20.64-.13-100.06-.05-200.12-.04-300.18.02-30.19,18.45-59.28,45.58-72.43Z"/>
  <path class="cls-1" d="M904.62,2150.81c11.75-1.46,23.62-.55,35.43-.8,28.67,0,57.35-.01,86.03.01,17.9-.03,35.76,6,49.91,16.99,19.71,14.96,31.91,39.24,32.02,64.01.05,95.32,0,190.65.02,285.98-.04,3.68.15,7.4-.29,11.1-1.29,9.51-7.84,18.15-16.75,21.8-8.37,3.61-18.55,2.52-25.95-2.78-7.47-5.09-12.08-14.04-12.01-23.06-.01-95.35.01-190.7,0-286.04-.08-4.35.25-8.79-1.04-12.98-2.42-8.75-9.44-16.05-18.11-18.75-3.83-1.3-7.93-1.34-11.92-1.29-35.65.03-71.3-.03-106.95.03-14.32-.14-27.12,12.66-26.96,26.98-.06,97.33,0,194.67-.03,292,.1,9.26-4.75,18.43-12.52,23.48-7.58,5.14-17.84,5.97-26.14,2.1-7.71-3.57-14.28-10.92-15.32-19.49-.02-91.71,0-183.41-.01-275.11.13-10.03-.31-20.07.31-30.07,1.52-18.12,9.31-35.62,21.77-48.86,12.66-13.63,30.07-22.74,48.51-25.25Z"/>
  <path class="cls-1" d="M1184.47,2150.7c10.18-2.46,21.53,1.67,27.82,10.04,6.79,8.54,7.61,21.21,2.01,30.58-5.18,9.13-15.92,14.69-26.37,13.54-10.01-.81-19.15-7.67-22.85-16.98-3.72-8.84-2.26-19.57,3.66-27.1,3.85-5.07,9.51-8.69,15.73-10.08Z"/>
  <path class="cls-1" d="M1183.43,2262.69c11.42-2.83,24.1,2.89,29.8,13.13,2.7,4.55,3.92,9.87,3.79,15.16.03,75.68,0,151.36.01,227.04-.02,4.94.28,10.05-1.4,14.82-2.95,9.32-11.13,16.75-20.75,18.66-10.49,2.22-21.97-2.53-27.87-11.46-2.16-3.26-4.21-6.96-3.99-10.98.07-82.07-.09-164.16.08-246.23,2.12-9.86,10.56-17.89,20.33-20.14Z"/>
</svg>